<svg xmlns="http://www.w3.org/2000/svg" width="269.031" height="83.226" viewBox="0 0 269.031 83.226">
  <g id="Group_221" data-name="Group 221" transform="translate(0 0)">
    <path id="Path_174" data-name="Path 174" d="M61.572,31.638H34.2V26.9H45.348V12.3H35.1V7.533H60.68V12.3H50.428V26.9H61.572Z" transform="translate(62.105 13.678)" fill="#5aab7c"/>
    <path id="Path_175" data-name="Path 175" d="M73.713,33.862H68.335l-7.4-10.1-5.851,10.1h-9.6V29.121h6.5l10.4-18.1H46.9V6.308H68.419v4.311l-4.773,8.4,7.625,10.128h2.441Z" transform="translate(82.579 11.453)" fill="#5aab7c"/>
    <path id="Path_176" data-name="Path 176" d="M84.576,13.019H81.948l-4.162,17.21H57.359V25.487h16.3L78.023,8.309h6.552Z" transform="translate(104.148 15.086)" fill="#5aab7c"/>
    <path id="Path_177" data-name="Path 177" d="M70.329,14.809H63.053L58.016,6.221H64.05l2.241,3.756h4.038Z" transform="translate(105.34 11.296)" fill="#5aab7c"/>
    <path id="Path_178" data-name="Path 178" d="M71.826,17.284H61.546L56.509,8.7h6.034l2.241,3.756h7.042Z" transform="translate(102.605 15.79)" fill="#5aab7c"/>
    <rect id="Rectangle_176" data-name="Rectangle 176" width="14.135" height="4.311" transform="translate(193.074 29.06)" fill="#5aab7c"/>
    <path id="Path_179" data-name="Path 179" d="M101.974,19.446l-3.908,3.908H88.49V28.1l-5.325,5.358H74.943V28.619h6.465l1.94-1.968V12.274H88.49v6.31h7.3l1.045-1.016V11.255H74.789V6.516h27.186Z" transform="translate(135.795 11.832)" fill="#5aab7c"/>
    <path id="Path_180" data-name="Path 180" d="M105.017,6.352,90.37,19.744H86V24.73h6.04L98.071,19.5V33.783h5.141V14.85l3.911-3.542h5.755V6.352Z" transform="translate(156.152 11.534)" fill="#5aab7c"/>
    <rect id="Rectangle_177" data-name="Rectangle 177" width="6.884" height="2.098" transform="translate(194.118 56.682)" fill="#5aab7c"/>
    <path id="Path_181" data-name="Path 181" d="M64.541,23.68l-3.218,7.9H52.709V29.275h6.834l2.179-5.325h-9.45V21.61H64.541Zm0-3.21H52.273V18.175H64.541Z" transform="translate(94.913 33.001)" fill="#5aab7c"/>
    <path id="Path_182" data-name="Path 182" d="M64.185,22.519H60.561l-2.675-3.936h3.106l1.067,1.6h2.126Zm6.763-1.005-1.343.017-2.01,9.312H57.554V28.534h7.9l2.244-9.388h3.255Z" transform="translate(104.502 33.742)" fill="#5aab7c"/>
    <path id="Path_183" data-name="Path 183" d="M76.785,22.911H74.192L72.35,32.149H64.083V29.841h6.09l1.484-6.929H67.234l-1.3,3.66H63.064V24.215h1.025l2.036-5.848h2.652L68.028,20.6h6.33l-.946-1.847.991-.479,1.092,2.07-.448.256h1.737Zm.707-3.03-1.109.555-1.064-2.115,1.019-.451Z" transform="translate(114.506 32.449)" fill="#5aab7c"/>
    <path id="Path_184" data-name="Path 184" d="M76.033,18.572,77.1,20.655l1.022-.541-1.112-2.067Z" transform="translate(138.054 32.77)" fill="#5aab7c"/>
    <path id="Path_185" data-name="Path 185" d="M76.7,18.357l1.078,2.131,1.109-.572-1.154-2.008Z" transform="translate(139.263 32.518)" fill="#5aab7c"/>
    <path id="Path_186" data-name="Path 186" d="M85.813,21.444H84.534L82.5,29.829H72.553V27.518h7.94l2.129-8.368h3.19Z" transform="translate(131.737 34.77)" fill="#5aab7c"/>
    <path id="Path_187" data-name="Path 187" d="M78.873,22.317H75.328l-2.455-4.184h2.94l1.092,1.83h1.968Z" transform="translate(132.317 32.923)" fill="#5aab7c"/>
    <path id="Path_188" data-name="Path 188" d="M79.6,23.522H74.6L72.14,19.338h2.94l1.093,1.83H79.6Z" transform="translate(130.985 35.113)" fill="#5aab7c"/>
    <rect id="Rectangle_178" data-name="Rectangle 178" width="41.456" height="1.518" transform="translate(96.309 56.905)" fill="#a6a7a7"/>
    <rect id="Rectangle_179" data-name="Rectangle 179" width="41.456" height="1.518" transform="translate(227.575 56.905)" fill="#a6a7a7"/>
    <path id="Path_189" data-name="Path 189" d="M4.729,43.64l8.878,8.878L31.36,34.762,35.8,39.2,18.045,56.955l2.219,2.219L40.238,39.2,31.36,30.324,13.607,48.077,9.167,43.64,44.676,8.131,42.457,5.912Z" transform="translate(8.588 10.735)" fill="#5aab7c"/>
    <path id="Path_190" data-name="Path 190" d="M23.854,32.689,39.388,17.154l-2.219-2.222L23.854,28.251l-4.438-4.44L32.732,10.5,30.51,8.276,14.976,23.811Z" transform="translate(27.192 15.028)" fill="#5aab7c"/>
    <rect id="Rectangle_180" data-name="Rectangle 180" width="3.138" height="12.555" transform="translate(59.922 21.084) rotate(-45)" fill="#5aab7c"/>
    <rect id="Rectangle_181" data-name="Rectangle 181" width="3.138" height="3.138" transform="translate(53.265 14.427) rotate(-45)" fill="#5aab7c"/>
    <path id="Path_191" data-name="Path 191" d="M26.747,0,7.882,18.865,10.1,21.084,28.966,2.219V0Z" transform="translate(14.312)" fill="#a6a7a7"/>
    <path id="Path_192" data-name="Path 192" d="M18.865,7.882,0,26.747l2.222,2.219L21.084,10.1V7.882Z" transform="translate(0 14.312)" fill="#a6a7a7"/>
    <path id="Path_193" data-name="Path 193" d="M31.33,2.365H29.112L10.246,21.23l2.219,2.219L31.33,4.583Z" transform="translate(18.605 4.294)" fill="#a6a7a7"/>
    <path id="Path_194" data-name="Path 194" d="M40.789,11.823H38.57L19.7,30.688l2.219,2.219L40.789,14.042Z" transform="translate(35.779 21.468)" fill="#a6a7a7"/>
    <path id="Path_195" data-name="Path 195" d="M43.154,14.188H40.935L22.07,33.053l2.219,2.219L43.154,16.407Z" transform="translate(40.073 25.761)" fill="#a6a7a7"/>
    <path id="Path_196" data-name="Path 196" d="M23.449,10.247H21.23L2.365,29.112l2.219,2.219L23.449,12.465Z" transform="translate(4.294 18.605)" fill="#a6a7a7"/>
    <path id="Path_197" data-name="Path 197" d="M32.907,19.705H30.688L11.823,38.57l2.219,2.219L32.907,21.924Z" transform="translate(21.468 35.779)" fill="#a6a7a7"/>
    <path id="Path_198" data-name="Path 198" d="M33.052,22.07,14.187,40.935l2.222,2.219L35.271,24.288V22.07Z" transform="translate(25.761 40.072)" fill="#a6a7a7"/>
  </g>
</svg>
