<svg xmlns="http://www.w3.org/2000/svg" width="177.919" height="55.041" viewBox="0 0 177.919 55.041">
  <g id="Group_256" data-name="Group 256" transform="translate(0)">
    <path id="Path_234" data-name="Path 234" d="M52.3,23.474H34.2V20.339h7.37V10.687h-6.78V7.533H51.713v3.154h-6.78v9.651H52.3Z" transform="translate(29.488 6.494)" fill="#fff"/>
    <path id="Path_235" data-name="Path 235" d="M64.151,24.531H60.595L55.7,17.853l-3.869,6.678H45.48V21.395h4.3L56.658,9.423H46.417V6.308H60.651V9.159l-3.156,5.558,5.043,6.7h1.614Z" transform="translate(39.21 5.438)" fill="#fff"/>
    <path id="Path_236" data-name="Path 236" d="M75.358,11.424H73.621L70.869,22.805H57.359V19.669H68.137L71.025,8.309h4.333Z" transform="translate(49.451 7.163)" fill="#fff"/>
    <path id="Path_237" data-name="Path 237" d="M66.159,11.9H61.347L58.016,6.221h3.991l1.482,2.484h2.67Z" transform="translate(50.017 5.364)" fill="#fff"/>
    <path id="Path_238" data-name="Path 238" d="M66.639,14.376h-6.8L56.509,8.7H60.5l1.482,2.484h4.657Z" transform="translate(48.718 7.498)" fill="#fff"/>
    <rect id="Rectangle_230" data-name="Rectangle 230" width="9.348" height="2.851" transform="translate(127.686 19.218)" fill="#fff"/>
    <path id="Path_239" data-name="Path 239" d="M92.767,15.067l-2.585,2.585H83.85v3.136l-3.521,3.544H74.891v-3.2h4.275l1.283-1.3V10.324h3.4V14.5h4.827l.691-.672V9.65H74.789V6.516H92.767Z" transform="translate(64.477 5.618)" fill="#fff"/>
    <path id="Path_240" data-name="Path 240" d="M98.577,6.352,88.89,15.208H86v3.3h3.994l3.989-3.46v9.447h3.4V11.972L99.97,9.629h3.806V6.352Z" transform="translate(74.143 5.476)" fill="#fff"/>
    <rect id="Rectangle_231" data-name="Rectangle 231" width="4.553" height="1.387" transform="translate(128.377 37.486)" fill="#fff"/>
    <path id="Path_241" data-name="Path 241" d="M60.386,21.815l-2.128,5.227h-5.7V25.515h4.519l1.441-3.521H52.273V20.447h8.113Zm0-2.123H52.273V18.175h8.113Z" transform="translate(45.066 15.669)" fill="#fff"/>
    <path id="Path_242" data-name="Path 242" d="M61.939,21.186h-2.4l-1.769-2.6h2.054l.706,1.056h1.406Zm4.473-.665-.888.011-1.33,6.158h-6.64V25.164h5.221l1.484-6.208h2.153Z" transform="translate(49.619 16.021)" fill="#fff"/>
    <path id="Path_243" data-name="Path 243" d="M72.138,21.2H70.423l-1.218,6.11H63.738V25.787h4.028l.981-4.583H65.822l-.86,2.421h-1.9V22.066h.678L65.088,18.2h1.754l-.5,1.479h4.186l-.626-1.222.655-.317.722,1.369-.3.169h1.149Zm.467-2-.734.367-.7-1.4.674-.3Z" transform="translate(54.369 15.407)" fill="#fff"/>
    <path id="Path_244" data-name="Path 244" d="M76.033,18.394l.7,1.378.676-.358-.736-1.367Z" transform="translate(65.55 15.56)" fill="#fff"/>
    <path id="Path_245" data-name="Path 245" d="M76.7,18.205l.713,1.41.734-.378-.763-1.328Z" transform="translate(66.124 15.44)" fill="#fff"/>
    <path id="Path_246" data-name="Path 246" d="M81.322,20.667h-.845l-1.343,5.545H72.553V24.684H77.8l1.408-5.534h2.11Z" transform="translate(62.551 16.509)" fill="#fff"/>
    <path id="Path_247" data-name="Path 247" d="M76.841,20.9H74.5l-1.624-2.767h1.944l.723,1.21h1.3Z" transform="translate(62.826 15.633)" fill="#fff"/>
    <path id="Path_248" data-name="Path 248" d="M77.074,22.105H73.763L72.14,19.338h1.944l.723,1.21h2.268Z" transform="translate(62.194 16.672)" fill="#fff"/>
    <rect id="Rectangle_232" data-name="Rectangle 232" width="27.416" height="1.004" transform="translate(63.692 37.633)" fill="#fff"/>
    <rect id="Rectangle_233" data-name="Rectangle 233" width="27.416" height="1.004" transform="translate(150.503 37.633)" fill="#fff"/>
    <path id="Path_249" data-name="Path 249" d="M4.729,30.863,10.6,36.734,22.341,24.991l2.937,2.937L13.535,39.669,15,41.136l13.21-13.208-5.871-5.871L10.6,33.8,7.664,30.863,31.147,7.379,29.68,5.912Z" transform="translate(4.078 5.097)" fill="#fff"/>
    <path id="Path_250" data-name="Path 250" d="M20.847,24.421,31.12,14.148l-1.467-1.469-8.806,8.808L17.912,18.55l8.806-8.806L25.249,8.276,14.976,18.55Z" transform="translate(12.911 7.135)" fill="#fff"/>
    <rect id="Rectangle_234" data-name="Rectangle 234" width="2.075" height="8.303" transform="translate(39.629 13.944) rotate(-45)" fill="#fff"/>
    <rect id="Rectangle_235" data-name="Rectangle 235" width="2.075" height="2.075" transform="translate(35.226 9.541) rotate(-45)" fill="#fff"/>
    <path id="Path_251" data-name="Path 251" d="M20.358,0,7.882,12.476l1.469,1.467L21.825,1.467V0Z" transform="translate(6.795 0)" fill="#fff"/>
    <path id="Path_252" data-name="Path 252" d="M12.476,7.882,0,20.358l1.469,1.467L13.943,9.349V7.882Z" transform="translate(0 6.795)" fill="#fff"/>
    <path id="Path_253" data-name="Path 253" d="M24.19,2.365H22.723L10.246,14.841l1.467,1.467L24.19,3.832Z" transform="translate(8.834 2.039)" fill="#fff"/>
    <path id="Path_254" data-name="Path 254" d="M33.648,11.823H32.181L19.7,24.3l1.467,1.467L33.648,13.29Z" transform="translate(16.988 10.193)" fill="#fff"/>
    <path id="Path_255" data-name="Path 255" d="M36.013,14.188H34.546L22.07,26.664l1.467,1.467L36.013,15.655Z" transform="translate(19.027 12.232)" fill="#fff"/>
    <path id="Path_256" data-name="Path 256" d="M16.308,10.247H14.841L2.365,22.723,3.832,24.19,16.308,11.714Z" transform="translate(2.039 8.834)" fill="#fff"/>
    <path id="Path_257" data-name="Path 257" d="M25.767,19.705H24.3L11.823,32.181l1.467,1.467L25.767,21.172Z" transform="translate(10.193 16.988)" fill="#fff"/>
    <path id="Path_258" data-name="Path 258" d="M26.663,22.07,14.187,34.546l1.469,1.467L28.131,23.537V22.07Z" transform="translate(12.231 19.027)" fill="#fff"/>
  </g>
</svg>
