<svg xmlns="http://www.w3.org/2000/svg" width="152.445" height="47.16" viewBox="0 0 152.445 47.16">
  <g id="Group_218" data-name="Group 218" transform="translate(0 0)">
    <path id="Path_174" data-name="Path 174" d="M49.712,21.192H34.2V18.505h6.315v-8.27H34.71v-2.7h14.5v2.7H43.4v8.27h6.315Z" transform="translate(20.369 4.486)" fill="#5aab7c"/>
    <path id="Path_175" data-name="Path 175" d="M61.478,21.921H58.431L54.238,16.2l-3.315,5.721H45.48V19.235h3.684L55.058,8.977H46.282V6.308h12.2V8.751l-2.7,4.763,4.321,5.739h1.383Z" transform="translate(27.084 3.756)" fill="#5aab7c"/>
    <path id="Path_176" data-name="Path 176" d="M72.781,10.978H71.292L68.934,20.73H57.359V18.043h9.235l2.475-9.734h3.713Z" transform="translate(34.158 4.948)" fill="#5aab7c"/>
    <path id="Path_177" data-name="Path 177" d="M64.993,11.087H60.87L58.016,6.221h3.419L62.7,8.35h2.288Z" transform="translate(34.549 3.705)" fill="#5aab7c"/>
    <path id="Path_178" data-name="Path 178" d="M65.189,13.563H59.363L56.509,8.7h3.419l1.27,2.128h3.99Z" transform="translate(33.652 5.179)" fill="#5aab7c"/>
    <rect id="Rectangle_176" data-name="Rectangle 176" width="8.009" height="2.443" transform="translate(109.404 16.467)" fill="#5aab7c"/>
    <path id="Path_179" data-name="Path 179" d="M90.193,13.843l-2.215,2.215H82.552v2.687L79.535,21.78H74.876V19.041H78.54l1.1-1.115V9.779h2.913v3.576h4.136l.592-.576V9.2H74.789V6.516h15.4Z" transform="translate(44.537 3.88)" fill="#5aab7c"/>
    <path id="Path_180" data-name="Path 180" d="M96.776,6.352l-8.3,7.588H86v2.826h3.422L92.84,13.8V21.9h2.913V11.167L97.969,9.16h3.261V6.352Z" transform="translate(51.214 3.783)" fill="#5aab7c"/>
    <rect id="Rectangle_177" data-name="Rectangle 177" width="3.901" height="1.189" transform="translate(109.996 32.119)" fill="#5aab7c"/>
    <path id="Path_181" data-name="Path 181" d="M59.225,21.294,57.4,25.773H52.52V24.464h3.872l1.235-3.017H52.273V20.122h6.952Zm0-1.819H52.273v-1.3h6.952Z" transform="translate(31.129 10.823)" fill="#5aab7c"/>
    <path id="Path_182" data-name="Path 182" d="M61.311,20.814H59.258l-1.516-2.231H59.5l.6.9h1.2Zm3.832-.57-.761.01L63.244,25.53h-5.69V24.222h4.474L63.3,18.9h1.844Z" transform="translate(34.274 11.066)" fill="#5aab7c"/>
    <path id="Path_183" data-name="Path 183" d="M70.839,20.727H69.369l-1.043,5.235H63.642V24.654h3.451l.841-3.927H65.427L64.69,22.8H63.064V21.466h.581L64.8,18.152h1.5l-.424,1.267h3.587l-.536-1.047.562-.271.619,1.173-.254.145h.984Zm.4-1.717-.629.314-.6-1.2.578-.255Z" transform="translate(37.555 10.642)" fill="#5aab7c"/>
    <path id="Path_184" data-name="Path 184" d="M76.033,18.345l.6,1.181.579-.306-.63-1.171Z" transform="translate(45.278 10.748)" fill="#5aab7c"/>
    <path id="Path_185" data-name="Path 185" d="M76.7,18.163l.611,1.208.629-.324-.654-1.138Z" transform="translate(45.675 10.665)" fill="#5aab7c"/>
    <path id="Path_186" data-name="Path 186" d="M80.067,20.45h-.724L78.192,25.2H72.553v-1.31h4.5l1.206-4.742h1.808Z" transform="translate(43.206 11.404)" fill="#5aab7c"/>
    <path id="Path_187" data-name="Path 187" d="M76.273,20.5H74.264l-1.391-2.371h1.666l.619,1.037h1.115Z" transform="translate(43.397 10.798)" fill="#5aab7c"/>
    <path id="Path_188" data-name="Path 188" d="M76.368,21.709H73.531L72.14,19.338h1.666l.619,1.037h1.943Z" transform="translate(42.96 11.516)" fill="#5aab7c"/>
    <rect id="Rectangle_178" data-name="Rectangle 178" width="23.491" height="0.86" transform="translate(54.573 32.245)" fill="#a6a7a7"/>
    <rect id="Rectangle_179" data-name="Rectangle 179" width="23.491" height="0.86" transform="translate(128.954 32.245)" fill="#a6a7a7"/>
    <path id="Path_189" data-name="Path 189" d="M4.729,27.29,9.76,32.321,19.82,22.259l2.516,2.516L12.274,34.835l1.257,1.257L24.85,24.776,19.82,19.745,9.76,29.8,7.244,27.29,27.365,7.169,26.108,5.912Z" transform="translate(2.817 3.521)" fill="#5aab7c"/>
    <path id="Path_190" data-name="Path 190" d="M20.006,22.109l8.8-8.8-1.257-1.259-7.545,7.547-2.515-2.516,7.545-7.545L23.778,8.276l-8.8,8.8Z" transform="translate(8.918 4.929)" fill="#5aab7c"/>
    <rect id="Rectangle_180" data-name="Rectangle 180" width="1.778" height="7.114" transform="translate(33.955 11.947) rotate(-45)" fill="#5aab7c"/>
    <rect id="Rectangle_181" data-name="Rectangle 181" width="1.778" height="1.778" transform="translate(30.182 8.175) rotate(-45)" fill="#5aab7c"/>
    <path id="Path_191" data-name="Path 191" d="M18.572,0,7.882,10.69l1.259,1.257L19.829,1.257V0Z" transform="translate(4.694)" fill="#a6a7a7"/>
    <path id="Path_192" data-name="Path 192" d="M10.689,7.882,0,18.572l1.259,1.257L11.947,9.139V7.882Z" transform="translate(0 4.694)" fill="#a6a7a7"/>
    <path id="Path_193" data-name="Path 193" d="M22.194,2.365H20.936l-10.69,10.69L11.5,14.312l10.69-10.69Z" transform="translate(6.102 1.408)" fill="#a6a7a7"/>
    <path id="Path_194" data-name="Path 194" d="M31.652,11.823H30.395L19.7,22.513l1.257,1.257,10.69-10.69Z" transform="translate(11.735 7.041)" fill="#a6a7a7"/>
    <path id="Path_195" data-name="Path 195" d="M34.017,14.188H32.759L22.07,24.878l1.257,1.257,10.69-10.69Z" transform="translate(13.143 8.449)" fill="#a6a7a7"/>
    <path id="Path_196" data-name="Path 196" d="M14.312,10.247H13.054L2.365,20.937l1.257,1.257L14.312,11.5Z" transform="translate(1.408 6.102)" fill="#a6a7a7"/>
    <path id="Path_197" data-name="Path 197" d="M23.77,19.705H22.513L11.823,30.4l1.257,1.257,10.69-10.69Z" transform="translate(7.041 11.735)" fill="#a6a7a7"/>
    <path id="Path_198" data-name="Path 198" d="M24.877,22.07l-10.69,10.69,1.259,1.257,10.688-10.69V22.07Z" transform="translate(8.449 13.143)" fill="#a6a7a7"/>
  </g>
</svg>
